<svg width="1600" height="1200" viewBox="0 0 1600 1200" xmlns="http://www.w3.org/2000/svg">
  <defs>
    <linearGradient id="bg" x1="0" y1="0" x2="1" y2="1"><stop offset="0" stop-color="#060914"/><stop offset="1" stop-color="#121c33"/></linearGradient>
    <linearGradient id="hero" x1="0" y1="0" x2="1" y2="0"><stop offset="0" stop-color="#17294d"/><stop offset="1" stop-color="#351c2c"/></linearGradient>
  </defs>
  <rect width="1600" height="1200" fill="url(#bg)"/>
  <rect x="36" y="28" width="1528" height="62" rx="14" fill="#0a1428" stroke="#3BA8FF"/>
  <text x="72" y="66" fill="#F5C451" font-size="26" font-family="Arial" font-weight="700">STARWARS WIKI</text>
  <text x="560" y="66" fill="#d7e4ff" font-size="18" font-family="Arial">Home  Characters  Films  Knowledge Graph  About  中 / EN</text>

  <rect x="80" y="132" width="1440" height="200" rx="24" fill="url(#hero)" stroke="#7fc7ff"/>
  <text x="128" y="212" fill="#F5C451" font-size="50" font-family="Arial" font-weight="700">A Galaxy of Stories</text>
  <text x="128" y="258" fill="#e6efff" font-size="28" font-family="Arial">从电影到小说，按时间线探索完整星战宇宙</text>

  <rect x="80" y="360" width="1440" height="370" rx="20" fill="#0f1728" stroke="#3BA8FF"/>
  <text x="112" y="408" fill="#F5C451" font-size="32" font-family="Arial">按时间线探索星战电影</text>
  <text x="112" y="442" fill="#cfe0ff" font-size="20" font-family="Arial">Tabs: 前传 / 正传 / 后传 / 外传 / 全部</text>
  <line x1="160" y1="560" x2="1420" y2="560" stroke="#6ea1ff" stroke-width="4"/>
  <circle cx="260" cy="560" r="16" fill="#F5C451"/><text x="226" y="600" fill="#eaf3ff" font-size="16">EP I</text>
  <circle cx="430" cy="560" r="16" fill="#F5C451"/><text x="396" y="600" fill="#eaf3ff" font-size="16">EP II</text>
  <circle cx="610" cy="560" r="16" fill="#ff6868"/><text x="576" y="600" fill="#eaf3ff" font-size="16">EP III</text>
  <circle cx="820" cy="560" r="16" fill="#F5C451"/><text x="792" y="600" fill="#eaf3ff" font-size="16">Rogue One</text>
  <circle cx="1000" cy="560" r="16" fill="#F5C451"/><text x="972" y="600" fill="#eaf3ff" font-size="16">EP IV</text>
  <circle cx="1180" cy="560" r="16" fill="#F5C451"/><text x="1152" y="600" fill="#eaf3ff" font-size="16">EP V</text>
  <circle cx="1360" cy="560" r="16" fill="#F5C451"/><text x="1332" y="600" fill="#eaf3ff" font-size="16">EP VI</text>

  <rect x="990" y="450" width="430" height="90" rx="14" fill="#13233f" stroke="#7fc7ff"/>
  <text x="1012" y="484" fill="#F5C451" font-size="20">Hover Preview · EP III</text>
  <text x="1012" y="512" fill="#e8f1ff" font-size="16">关键人物: Anakin / Obi-Wan / Padmé</text>
  <text x="1012" y="532" fill="#cfe0ff" font-size="14">Click → /[locale]/films/episode-iii</text>

  <rect x="80" y="760" width="1440" height="360" rx="20" fill="#0f1728" stroke="#3BA8FF"/>
  <text x="112" y="808" fill="#F5C451" font-size="32" font-family="Arial">电影之外的银河故事</text>
  <text x="112" y="840" fill="#cfe0ff" font-size="20" font-family="Arial">人物来自小说 / 漫画 / 动画 / 游戏，点击查看完整故事</text>

  <rect x="120" y="870" width="320" height="210" rx="14" fill="#13233f" stroke="#7fc7ff"/>
  <text x="140" y="905" fill="#F5C451" font-size="20">Mara Jade</text><text x="140" y="935" fill="#dce9ff" font-size="16">来源: 小说</text><text x="140" y="960" fill="#dce9ff" font-size="16">时间锚点: 9 ABY</text>
  <rect x="470" y="870" width="320" height="210" rx="14" fill="#13233f" stroke="#7fc7ff"/>
  <text x="490" y="905" fill="#F5C451" font-size="20">Ahsoka Tano</text><text x="490" y="935" fill="#dce9ff" font-size="16">来源: 动画</text><text x="490" y="960" fill="#dce9ff" font-size="16">关联: Anakin Skywalker</text>
  <rect x="820" y="870" width="320" height="210" rx="14" fill="#13233f" stroke="#7fc7ff"/>
  <text x="840" y="905" fill="#F5C451" font-size="20">Revan</text><text x="840" y="935" fill="#dce9ff" font-size="16">来源: 游戏</text><text x="840" y="960" fill="#dce9ff" font-size="16">时间锚点: Old Republic</text>
  <rect x="1170" y="870" width="320" height="210" rx="14" fill="#13233f" stroke="#7fc7ff"/>
  <text x="1190" y="905" fill="#F5C451" font-size="20">Doctor Aphra</text><text x="1190" y="935" fill="#dce9ff" font-size="16">来源: 漫画</text><text x="1190" y="960" fill="#dce9ff" font-size="16">关联: Darth Vader</text>
</svg>
