<svg width="1600" height="900" viewBox="0 0 1600 900" xmlns="http://www.w3.org/2000/svg">
  <defs>
    <linearGradient id="bg" x1="0" y1="0" x2="1" y2="1"><stop offset="0" stop-color="#060914"/><stop offset="1" stop-color="#121c33"/></linearGradient>
    <linearGradient id="hero" x1="0" y1="0" x2="1" y2="0"><stop offset="0" stop-color="#17294d"/><stop offset="1" stop-color="#351c2c"/></linearGradient>
    <filter id="glow"><feGaussianBlur stdDeviation="5" result="b"/><feMerge><feMergeNode in="b"/><feMergeNode in="SourceGraphic"/></feMerge></filter>
  </defs>
  <rect width="1600" height="900" fill="url(#bg)"/>
  <circle cx="180" cy="120" r="2" fill="#fff"/><circle cx="300" cy="180" r="1.5" fill="#fff"/><circle cx="1360" cy="90" r="2" fill="#ffe9b3"/>
  <rect x="36" y="28" width="1528" height="62" rx="14" fill="#0a1428" stroke="#3BA8FF"/>
  <text x="72" y="66" fill="#F5C451" font-size="26" font-family="Arial" font-weight="700">STARWARS WIKI</text>
  <text x="560" y="66" fill="#d7e4ff" font-size="18" font-family="Arial">Home  Characters  Films  Knowledge Graph  About  中 / EN</text>
  <rect x="80" y="132" width="1440" height="240" rx="24" fill="url(#hero)" stroke="#7fc7ff"/>
  <text x="128" y="220" fill="#F5C451" font-size="54" font-family="Arial" font-weight="700" filter="url(#glow)">A Galaxy of Stories</text>
  <text x="128" y="266" fill="#e6efff" font-size="28" font-family="Arial">探索人物、电影、事件与原力关系网络</text>
  <rect x="128" y="292" width="220" height="46" rx="12" fill="#16345f" stroke="#7fc7ff"/><text x="148" y="321" fill="#eaf3ff" font-size="20" font-family="Arial">进入人物编年史</text>
  <rect x="372" y="292" width="220" height="46" rx="12" fill="#16345f" stroke="#7fc7ff"/><text x="392" y="321" fill="#eaf3ff" font-size="20" font-family="Arial">浏览电影宇宙</text>
  <rect x="616" y="292" width="220" height="46" rx="12" fill="#16345f" stroke="#7fc7ff"/><text x="636" y="321" fill="#eaf3ff" font-size="20" font-family="Arial">打开知识图谱</text>
  <rect x="80" y="398" width="700" height="450" rx="20" fill="#0f1728" stroke="#3BA8FF"/>
  <rect x="820" y="398" width="700" height="450" rx="20" fill="#0f1728" stroke="#3BA8FF"/>
  <text x="118" y="442" fill="#F5C451" font-size="30" font-family="Arial">精选人物</text>
  <text x="858" y="442" fill="#F5C451" font-size="30" font-family="Arial">时代入口</text>
</svg>
